# xmcd CD database file
#
# Track frame offsets:
#	150
#	14334
#	33726
#	63784
#	101722
#	129917
#	150800
#	170008
#	229868
#	265126
#	293725
#
# Disc length: 4590 seconds
#
# Revision: 3
# Processed by: cddbd v1.5.2PL0 Copyright (c) Steve Scherf et al.
# Submitted via: CDex 1.51
#
DISCID=8a11ec0b
DTITLE=Gary Moore - Live At Montreux - Essential Montreux - CD3 - 1997
DYEAR=1997
DGENRE=Blues
TTITLE0=One Good Reason (Live)
TTITLE1=One Fine Day (Live)
TTITLE2=Cold Wind Blows (Live)
TTITLE3=I've Found My Love In You (Live)
TTITLE4=Always There For You (Live)
TTITLE5=Oh Pretty Woman (Live)
TTITLE6=Walking By Myself (Live)
TTITLE7=Business As Usual (Live)
TTITLE8=Out In The Fields (Live)
TTITLE9=Over The Hills And Far Away (Live)
TTITLE10=Parisienne Walkways (Live)
EXTD=YEAR: 1997
EXTT0=
EXTT1=
EXTT2=
EXTT3=
EXTT4=
EXTT5=
EXTT6=
EXTT7=
EXTT8=
EXTT9=
EXTT10=
PLAYORDER=
